<?xml version="1.0" encoding="UTF-8"?>
<svg version="1.1" xmlns="http://www.w3.org/2000/svg" width="512" height="512">
<path d="M0 0 C2.79992704 1.10144189 4.82018617 2.73113491 7.1875 4.5859375 C20.1119556 14.14251247 35.99535594 18.94169667 52.09082031 16.54296875 C64.02903531 14.48217247 75.04820724 10.7115188 84.125 2.3359375 C87.125 -0.1640625 87.125 -0.1640625 89.546875 -0.02734375 C100.27905277 3.56630972 108.27642209 16.80799968 113.09106445 26.41625977 C118.14276097 37.08547537 120.3668345 46.75277461 120.5625 58.5234375 C120.58497803 59.40273926 120.60745605 60.28204102 120.63061523 61.18798828 C120.59670662 70.43721451 117.29892833 77.32024647 111.0546875 84.046875 C108.0404266 86.84147316 104.78711918 88.98333603 101.125 90.8359375 C100.46359512 91.1800769 99.80219025 91.52421631 99.1207428 91.87878418 C94.81026181 93.25600227 90.70094227 93.1474504 86.20092773 93.15820312 C85.20510178 93.16813293 84.20927582 93.17806274 83.18327332 93.18829346 C79.89168516 93.21747858 76.60029 93.23113329 73.30859375 93.2421875 C71.01278176 93.25369839 68.71696979 93.26521376 66.42115784 93.2767334 C61.6052257 93.29773905 56.78936016 93.30943268 51.97338867 93.31640625 C45.8256238 93.32735092 39.67875041 93.37535706 33.53126431 93.43235016 C28.7860718 93.46975122 24.04109042 93.48002208 19.29576302 93.483078 C17.03089608 93.48910247 14.76603159 93.50506242 12.50131035 93.53144836 C-1.97328691 93.68800211 -12.58668817 93.47783166 -23.875 83.4609375 C-32.66392186 73.81455985 -32.47474447 62.84022663 -32.04541016 50.49316406 C-30.86412925 32.07330534 -20.05032928 15.14528185 -6.7578125 2.8828125 C-2.75820672 -0.24134309 -2.75820672 -0.24134309 0 0 Z " fill="#FD6F00" transform="translate(359.875,338.1640625)"/>
<path d="M0 0 C2.79992704 1.10144189 4.82018617 2.73113491 7.1875 4.5859375 C20.1119556 14.14251247 35.99535594 18.94169667 52.09082031 16.54296875 C64.02903531 14.48217247 75.04820724 10.7115188 84.125 2.3359375 C87.125 -0.1640625 87.125 -0.1640625 89.546875 -0.02734375 C100.27905277 3.56630972 108.27642209 16.80799968 113.09106445 26.41625977 C118.14276097 37.08547537 120.3668345 46.75277461 120.5625 58.5234375 C120.58497803 59.40273926 120.60745605 60.28204102 120.63061523 61.18798828 C120.59670662 70.43721451 117.29892833 77.32024647 111.0546875 84.046875 C108.0404266 86.84147316 104.78711918 88.98333603 101.125 90.8359375 C100.46359512 91.1800769 99.80219025 91.52421631 99.1207428 91.87878418 C94.81026181 93.25600227 90.70094227 93.1474504 86.20092773 93.15820312 C85.20510178 93.16813293 84.20927582 93.17806274 83.18327332 93.18829346 C79.89168516 93.21747858 76.60029 93.23113329 73.30859375 93.2421875 C71.01278176 93.25369839 68.71696979 93.26521376 66.42115784 93.2767334 C61.6052257 93.29773905 56.78936016 93.30943268 51.97338867 93.31640625 C45.8256238 93.32735092 39.67875041 93.37535706 33.53126431 93.43235016 C28.7860718 93.46975122 24.04109042 93.48002208 19.29576302 93.483078 C17.03089608 93.48910247 14.76603159 93.50506242 12.50131035 93.53144836 C-1.97328691 93.68800211 -12.58668817 93.47783166 -23.875 83.4609375 C-32.66392186 73.81455985 -32.47474447 62.84022663 -32.04541016 50.49316406 C-30.86412925 32.07330534 -20.05032928 15.14528185 -6.7578125 2.8828125 C-2.75820672 -0.24134309 -2.75820672 -0.24134309 0 0 Z " fill="#FEC700" transform="translate(63.875,338.1640625)"/>
<path d="M0 0 C2.01171875 0.40234375 2.01171875 0.40234375 5.07421875 2.33984375 C7.74989646 6.56914077 6.92709012 9.69695485 6.01171875 14.40234375 C4.65581526 19.91185955 3.10439475 25.3594579 1.5390625 30.8125 C1.09146287 32.39129765 0.6444973 33.97027519 0.19813538 35.54942322 C-0.9709991 39.67917067 -2.14866019 43.80643791 -3.32818604 47.93322754 C-4.53325043 52.15517712 -5.73013496 56.37944372 -6.92773438 60.60351562 C-9.27330422 68.87206563 -11.62789778 77.13801039 -13.98828125 85.40234375 C-13.32286819 85.3934613 -12.65745514 85.38457886 -11.97187805 85.37542725 C-5.04522289 85.28692185 1.88127159 85.22659584 8.80834961 85.18261719 C11.39337692 85.16250403 13.97835875 85.13520989 16.56323242 85.10058594 C20.2792483 85.05205721 23.99466253 85.0293714 27.7109375 85.01171875 C28.86631516 84.99107361 30.02169281 84.97042847 31.21208191 84.94915771 C35.73257797 84.947894 39.12426762 85.0054465 43.28051758 86.86425781 C45.31334133 89.84454772 45.78469152 92.11829708 45.5680542 95.71612549 C44.37603847 101.47167177 41.48571098 106.55866806 38.80078125 111.73828125 C38.15059963 113.02434335 37.5019791 114.31119573 36.85482788 115.5987854 C35.14843013 118.98300998 33.42042926 122.35573877 31.68774414 125.7265625 C29.9629599 129.09199517 28.26003077 132.46843776 26.5546875 135.84375 C20.66462302 147.48164175 14.68921914 159.07151006 8.57484436 170.59335327 C5.39702749 176.6077873 2.34947059 182.68299645 -0.671875 188.77734375 C-1.14570618 189.73283112 -1.61953735 190.68831848 -2.10772705 191.67276001 C-4.04645694 195.58683464 -5.98260045 199.50214869 -7.91186523 203.42089844 C-9.3473759 206.33405017 -10.79029671 209.24343179 -12.234375 212.15234375 C-12.88592812 213.48338135 -12.88592812 213.48338135 -13.55064392 214.84130859 C-14.16257347 216.07034912 -14.16257347 216.07034912 -14.78686523 217.32421875 C-15.14086899 218.0419043 -15.49487274 218.75958984 -15.85960388 219.49902344 C-17.04201755 221.49296077 -18.22644655 222.90044598 -19.98828125 224.40234375 C-23.05689606 225.08049067 -25.90586839 224.98655557 -28.98828125 224.40234375 C-31.55078125 222.33984375 -31.55078125 222.33984375 -32.98828125 219.40234375 C-33.29342895 214.29110153 -32.58465525 209.9058785 -31.35180664 204.95410156 C-31.17784866 204.2458876 -31.00389069 203.53767365 -30.82466125 202.80799866 C-30.25285038 200.48848667 -29.66955148 198.1720364 -29.0859375 195.85546875 C-28.68409168 194.23615011 -28.28293343 192.6166607 -27.88243103 190.99700928 C-26.8297194 186.74834459 -25.76705082 182.50223036 -24.70245361 178.25653076 C-23.83388126 174.78557671 -22.97232203 171.3129004 -22.11113834 167.84010696 C-20.33278223 160.66925918 -18.5499565 153.49950675 -16.75415039 146.33300781 C-16.43660294 145.06394592 -16.11905548 143.79488403 -15.79188538 142.48736572 C-15.25860664 140.44011813 -14.65728117 138.40934351 -13.98828125 136.40234375 C-14.69349915 136.4112262 -15.39871704 136.42010864 -16.12530518 136.42926025 C-22.77567833 136.50945298 -29.4259163 136.57033156 -36.07666397 136.60959244 C-39.49581805 136.63045576 -42.91457219 136.6587488 -46.33349609 136.70410156 C-50.26525056 136.75592993 -54.19684382 136.77529953 -58.12890625 136.79296875 C-59.96814667 136.82393646 -59.96814667 136.82393646 -61.84454346 136.85552979 C-62.98542419 136.85583191 -64.12630493 136.85613403 -65.30175781 136.85644531 C-66.80733246 136.86976898 -66.80733246 136.86976898 -68.34332275 136.88336182 C-71.74802301 136.26417541 -72.91988537 135.13473019 -74.98828125 132.40234375 C-75.70897762 126.34562539 -74.68381337 122.8434286 -71.7265625 117.4296875 C-71.38477463 116.79362076 -71.04298676 116.15755402 -70.69084167 115.50221252 C-69.57673439 113.43897373 -68.43931813 111.38968651 -67.30078125 109.33984375 C-66.51433038 107.89523529 -65.72918735 106.44991413 -64.9453125 105.00390625 C-60.05523077 96.01504624 -55.03570868 87.09794605 -49.95117188 78.21777344 C-45.22759671 69.93249383 -40.75595095 61.52127917 -36.30078125 53.08984375 C-30.68330122 42.46024221 -25.0205176 31.86794608 -19.10888672 21.39794922 C-17.89151381 19.2300176 -16.69099068 17.05325089 -15.4921875 14.875 C-14.67845568 13.40490902 -13.86465612 11.93485553 -13.05078125 10.46484375 C-12.6846875 9.79517578 -12.31859375 9.12550781 -11.94140625 8.43554688 C-7.06251129 -0.32636374 -7.06251129 -0.32636374 0 0 Z " fill="#FE9B00" transform="translate(270.98828125,80.59765625)"/>
<path d="M0 0 C9.77493975 8.91036927 16.35365534 19.45508378 17.5 32.91796875 C17.80227308 46.81757536 15.25788357 58.06007097 6.1640625 68.97265625 C5.59042969 69.68164062 5.01679688 70.390625 4.42578125 71.12109375 C-3.93239208 80.46363439 -15.95787337 85.09676879 -28.21484375 86.18359375 C-40.829108 86.71003174 -52.91597609 82.79373967 -62.56640625 74.67578125 C-72.24092706 65.47283974 -78.77818801 53.75168015 -79.12841797 40.18579102 C-79.25939537 25.70639886 -75.16012468 13.44679099 -65.0859375 2.72265625 C-47.34528905 -13.97244067 -18.95393012 -15.77261676 0 0 Z " fill="#FD6F00" transform="translate(434.8359375,255.02734375)"/>
<path d="M0 0 C9.77493975 8.91036927 16.35365534 19.45508378 17.5 32.91796875 C17.80227308 46.81757536 15.25788357 58.06007097 6.1640625 68.97265625 C5.59042969 69.68164062 5.01679688 70.390625 4.42578125 71.12109375 C-3.93239208 80.46363439 -15.95787337 85.09676879 -28.21484375 86.18359375 C-40.829108 86.71003174 -52.91597609 82.79373967 -62.56640625 74.67578125 C-72.24092706 65.47283974 -78.77818801 53.75168015 -79.12841797 40.18579102 C-79.25939537 25.70639886 -75.16012468 13.44679099 -65.0859375 2.72265625 C-47.34528905 -13.97244067 -18.95393012 -15.77261676 0 0 Z " fill="#FEC700" transform="translate(138.8359375,255.02734375)"/>
</svg>
